<svg width="40" height="40" viewBox="0 0 40 40" fill="none" xmlns="http://www.w3.org/2000/svg">
<g clip-path="url(#clip0_614_2772)">
<rect width="40" height="40" rx="20" fill="#37332F"/>
<path d="M29.5002 30.5924C29.224 30.5924 29.0002 30.3686 29.0002 30.0924V8.5C29.0002 8.22386 28.7763 8 28.5002 8H16.8432C16.5671 8 16.3432 8.22386 16.3432 8.5V12.5463C16.3432 12.8224 16.1194 13.0463 15.8432 13.0463H11.4998C11.2237 13.0463 10.9998 13.2701 10.9998 13.5463V30.0924C10.9998 30.3685 10.776 30.5924 10.4998 30.5924H8.5C8.22386 30.5924 8 30.8163 8 31.0924V31.5C8 31.7761 8.22386 32 8.5 32H31.5C31.7761 32 32 31.7761 32 31.5V31.0924C32 30.8163 31.7761 30.5924 31.5 30.5924L29.5002 30.5924ZM15.0778 27.6375C15.0778 27.9137 14.8539 28.1375 14.5778 28.1375H13.5C13.2239 28.1375 13 27.9137 13 27.6375V26.6336C13 26.3575 13.2239 26.1336 13.5 26.1336H14.5778C14.8539 26.1336 15.0778 26.3575 15.0778 26.6336V27.6375ZM15.0778 24.2259C15.0778 24.502 14.8539 24.7259 14.5778 24.7259H13.5C13.2239 24.7259 13 24.502 13 24.2259V23.2219C13 22.9458 13.2239 22.7219 13.5 22.7219H14.5778C14.8539 22.7219 15.0778 22.9458 15.0778 23.2219V24.2259ZM15.0778 20.8142C15.0778 21.0903 14.8539 21.3142 14.5778 21.3142H13.5C13.2239 21.3142 13 21.0903 13 20.8142V19.8103C13 19.5341 13.2239 19.3103 13.5 19.3103H14.5778C14.8539 19.3103 15.0778 19.5341 15.0778 19.8103V20.8142ZM15.0778 17.4025C15.0778 17.6787 14.8539 17.9025 14.5778 17.9025H13.5C13.2239 17.9025 13 17.6787 13 17.4025V15.3975C13 15.1213 13.2239 14.8975 13.5 14.8975H14.5778C14.8539 14.8975 15.0778 15.1213 15.0778 15.3975V17.4025ZM20.5622 28.3799C20.5622 28.6561 20.3383 28.8799 20.0622 28.8799H19C18.7239 28.8799 18.5 28.6561 18.5 28.3799V26.9401C18.5 26.6639 18.7239 26.4401 19 26.4401H20.0622C20.3383 26.4401 20.5622 26.6639 20.5622 26.9401V28.3799ZM20.5622 24.5324C20.5622 24.8085 20.3383 25.0324 20.0622 25.0324H19C18.7239 25.0324 18.5 24.8085 18.5 24.5324V23.0925C18.5 22.8164 18.7239 22.5925 19 22.5925H20.0622C20.3383 22.5925 20.5622 22.8164 20.5622 23.0925V24.5324ZM20.5622 20.6848C20.5622 20.961 20.3383 21.1848 20.0622 21.1848H19C18.7239 21.1848 18.5 20.961 18.5 20.6848V19.245C18.5 18.9689 18.7239 18.745 19 18.745H20.0622C20.3383 18.745 20.5622 18.9689 20.5622 19.245V20.6848ZM20.5622 16.8373C20.5622 17.1135 20.3383 17.3373 20.0622 17.3373H19C18.7239 17.3373 18.5 17.1135 18.5 16.8373V15.3975C18.5 15.1213 18.7239 14.8975 19 14.8975H20.0622C20.3383 14.8975 20.5622 15.1213 20.5622 15.3975V16.8373ZM20.5622 12.9898C20.5622 13.266 20.3383 13.4898 20.0622 13.4898H19C18.7239 13.4898 18.5 13.266 18.5 12.9898V11.55C18.5 11.2738 18.7239 11.05 19 11.05H20.0622C20.3383 11.05 20.5622 11.2738 20.5622 11.55V12.9898ZM24 30.7962C24 31.0724 23.7761 31.2962 23.5 31.2962H22C21.7239 31.2962 21.5 31.0724 21.5 30.7962V26.9401C21.5 26.6639 21.7239 26.4401 22 26.4401H23.5C23.7761 26.4401 24 26.6639 24 26.9401V30.7962ZM24 24.5324C24 24.8085 23.7761 25.0324 23.5 25.0324H22C21.7239 25.0324 21.5 24.8085 21.5 24.5324V23.0925C21.5 22.8164 21.7239 22.5925 22 22.5925H23.5C23.7761 22.5925 24 22.8164 24 23.0925V24.5324ZM24 20.6848C24 20.961 23.7761 21.1848 23.5 21.1848H22C21.7239 21.1848 21.5 20.961 21.5 20.6848V19.245C21.5 18.9689 21.7239 18.745 22 18.745H23.5C23.7761 18.745 24 18.9689 24 19.245V20.6848ZM24 16.8373C24 17.1135 23.7761 17.3373 23.5 17.3373H22C21.7239 17.3373 21.5 17.1135 21.5 16.8373V15.3975C21.5 15.1213 21.7239 14.8975 22 14.8975H23.5C23.7761 14.8975 24 15.1213 24 15.3975V16.8373ZM24 12.9898C24 13.266 23.7761 13.4898 23.5 13.4898H22C21.7239 13.4898 21.5 13.266 21.5 12.9898V11.55C21.5 11.2738 21.7239 11.05 22 11.05H23.5C23.7761 11.05 24 11.2738 24 11.55V12.9898ZM27 28.3411C27 28.6128 26.7829 28.8348 26.5113 28.8409L25.2925 28.8684C25.012 28.8747 24.7812 28.6491 24.7812 28.3685V26.9289C24.7812 26.6572 24.9983 26.4352 25.27 26.4291L26.4887 26.4016C26.7692 26.3953 27 26.6209 27 26.9015V28.3411ZM27 24.4935C27 24.7653 26.7829 24.9873 26.5113 24.9934L25.2925 25.0209C25.012 25.0272 24.7812 24.8015 24.7812 24.521V23.0814C24.7812 22.8096 24.9983 22.5877 25.27 22.5815L26.4887 22.5541C26.7692 22.5478 27 22.7734 27 23.0539V24.4935ZM27 20.646C27 20.9178 26.7829 21.1398 26.5113 21.1459L25.2925 21.1733C25.012 21.1796 24.7812 20.954 24.7812 20.6735V19.2339C24.7812 18.9621 24.9983 18.7401 25.27 18.734L26.4887 18.7065C26.7692 18.7002 27 18.9259 27 19.2064V20.646ZM27 16.7985C27 17.0702 26.7829 17.2922 26.5113 17.2983L25.2925 17.3258C25.012 17.3321 24.7812 17.1065 24.7812 16.8259V15.3863C24.7812 15.1146 24.9983 14.8926 25.27 14.8865L26.4887 14.859C26.7692 14.8527 27 15.0783 27 15.3589V16.7985ZM27 12.951C27 13.2227 26.7829 13.4447 26.5113 13.4509L25.2925 13.4783C25.012 13.4846 24.7812 13.259 24.7812 12.9784V11.5388C24.7812 11.2671 24.9983 11.0451 25.27 11.039L26.4887 11.0115C26.7692 11.0052 27 11.2308 27 11.5114V12.951Z" fill="url(#paint0_linear_614_2772)"/>
</g>
<defs>
<linearGradient id="paint0_linear_614_2772" x1="7.35678" y1="11.7857" x2="32.4937" y2="12.83" gradientUnits="userSpaceOnUse">
<stop stop-color="#C09E6C"/>
<stop offset="0.426246" stop-color="#FFEBCC"/>
<stop offset="1" stop-color="#BF936B"/>
</linearGradient>
<clipPath id="clip0_614_2772">
<rect width="40" height="40" fill="white"/>
</clipPath>
</defs>
</svg>
