<svg width="40" height="40" viewBox="0 0 40 40" fill="none" xmlns="http://www.w3.org/2000/svg">
<rect width="40" height="40" rx="20" fill="#37332F"/>
<path d="M23.0293 21.1032L30 16.1852V25.0346C29.9987 25.3241 29.927 25.6097 29.79 25.8706L23.0293 21.1032ZM18.1429 20.2771L18.6936 19.8886C19.0681 19.6244 19.5274 19.4811 20 19.4811C20.4726 19.4811 20.9319 19.6244 21.3064 19.8886L21.8571 20.2771L29.2857 15.0361L21.3064 9.40665C20.9316 9.14294 20.4724 9 20 9C19.5276 9 19.0684 9.14294 18.6936 9.40665L10.7143 15.0361L18.1429 20.2771ZM10 16.1852V25.0346C10.0014 25.3243 10.0729 25.61 10.2093 25.8712L16.9707 21.1032L10 16.1852ZM20.435 20.927C20.3102 20.839 20.1571 20.7913 19.9996 20.7913C19.8422 20.7913 19.6891 20.839 19.5643 20.927L11.2307 26.8035C11.5148 26.931 11.8266 26.9982 12.1429 27H27.8571C28.1738 26.9978 28.486 26.9306 28.7707 26.8035L20.435 20.927Z" fill="url(#paint0_linear_614_2767)"/>
<defs>
<linearGradient id="paint0_linear_614_2767" x1="9.46399" y1="11.8393" x2="30.403" y2="12.8059" gradientUnits="userSpaceOnUse">
<stop stop-color="#C09E6C"/>
<stop offset="0.426246" stop-color="#FFEBCC"/>
<stop offset="1" stop-color="#BF936B"/>
</linearGradient>
</defs>
</svg>
