<svg width="44" height="44" viewBox="0 0 44 44" fill="none" xmlns="http://www.w3.org/2000/svg">
<path d="M17.9819 25.2812C17.7811 25.2812 17.5885 25.3623 17.4466 25.5066C17.3046 25.6508 17.2249 25.8465 17.2249 26.0505C17.2249 26.2545 17.3046 26.4502 17.4466 26.5945C17.5885 26.7387 17.7811 26.8198 17.9819 26.8198H22.0193C22.22 26.8198 22.4126 26.7387 22.5546 26.5945C22.6965 26.4502 22.7763 26.2545 22.7763 26.0505C22.7763 25.8465 22.6965 25.6508 22.5546 25.5066C22.4126 25.3623 22.22 25.2812 22.0193 25.2812H17.9819Z" fill="url(#paint0_linear_501_9353)"/>
<path fill-rule="evenodd" clip-rule="evenodd" d="M24.3954 18.0009L25.5358 18.0432C25.9678 18.0659 26.3604 18.1 26.7167 18.1527C27.7826 18.3085 28.6648 18.645 29.2916 19.4377C29.9184 20.2315 30.0557 21.1832 29.982 22.2814C29.9113 23.3456 29.6287 24.6885 29.2774 26.3659L28.8222 28.5407C28.585 29.673 28.3922 30.5906 28.15 31.307C27.8977 32.0553 27.5646 32.6695 26.9973 33.1391C26.4301 33.6088 25.772 33.8121 25.0049 33.9081C24.268 34 23.3495 34 22.2191 34H17.782C16.6495 34 15.732 34 14.9951 33.9081C14.228 33.8121 13.5699 33.6088 13.0027 33.1391C12.4344 32.6695 12.1023 32.0553 11.85 31.308C11.6078 30.5906 11.416 29.673 11.1778 28.5417L10.7226 26.3669C10.3713 24.6885 10.0897 23.3456 10.018 22.2814C9.94435 21.1832 10.0816 20.2315 10.7084 19.4377C11.3342 18.645 12.2164 18.3085 13.2823 18.1527C13.6386 18.101 14.0322 18.0659 14.4632 18.0432L17.3368 18.0009H22.6642C23.0699 18.0009 24.028 17.9989 24.3954 18.0009ZM13.6739 19.6607L13.2671 20.4926C13.2218 20.5837 13.1946 20.683 13.187 20.7849C13.1794 20.8868 13.1915 20.9892 13.2228 21.0862C13.2541 21.1832 13.3039 21.273 13.3692 21.3503C13.4346 21.4275 13.5142 21.4908 13.6036 21.5364C13.693 21.5821 13.7904 21.6092 13.89 21.6162C13.9897 21.6231 14.0897 21.6099 14.1844 21.5771C14.279 21.5444 14.3664 21.4928 14.4414 21.4254C14.5165 21.3579 14.5777 21.276 14.6217 21.1842L15.416 19.5595C15.9914 19.5492 16.6474 19.5482 17.3984 19.5482H22.6026C23.3536 19.5482 24.0096 19.5482 24.585 19.5585L25.3793 21.1842C25.4699 21.3663 25.6272 21.5043 25.817 21.5683C26.0067 21.6322 26.2134 21.6169 26.3921 21.5257C26.5708 21.4344 26.707 21.2746 26.7711 21.0811C26.8351 20.8876 26.8217 20.6761 26.7339 20.4926L26.3271 19.6607L26.5027 19.6844C27.395 19.8155 27.8321 20.054 28.1147 20.4101C28.3922 20.761 28.5285 21.2389 28.474 22.1287H11.527C11.4725 21.2389 11.6088 20.761 11.8863 20.4101C12.169 20.054 12.606 19.8155 13.4983 19.6844L13.6739 19.6607ZM12.2164 26.1037C12.0429 25.2976 11.881 24.489 11.7309 23.678H28.2701C28.1194 24.4889 27.9572 25.2976 27.7836 26.1037L27.3516 28.1681C27.1013 29.3603 26.9277 30.185 26.7187 30.8022C26.5169 31.4009 26.311 31.7168 26.0455 31.9356C25.7811 32.1544 25.4348 32.2948 24.8222 32.3712C24.1873 32.4507 23.3616 32.4517 22.1696 32.4517H17.8304C16.6394 32.4517 15.8137 32.4507 15.1788 32.3712C14.5652 32.2948 14.22 32.1544 13.9555 31.9356C13.69 31.7168 13.4831 31.3999 13.2823 30.8022C13.0733 30.185 12.8987 29.3603 12.6494 28.1681L12.2164 26.1037Z" fill="url(#paint1_linear_501_9353)"/>
<path d="M26 21C26 21 24 13 20 13C16 13 14 21 14 21" stroke="url(#paint2_linear_501_9353)" stroke-width="1.5" stroke-linecap="round" stroke-linejoin="round"/>
<path d="M26 21C26 21 24 13 20 13C16 13 14 21 14 21" stroke="url(#paint3_linear_501_9353)" stroke-width="1.5" stroke-linecap="round" stroke-linejoin="round"/>
<rect x="22" y="2" width="20" height="20" rx="10" fill="#E05B49"/>
<path d="M28.0947 16.5V8.7L28.7787 9.408H26.3187V8.1H29.6547V16.5H28.0947ZM33.961 16.62C33.369 16.62 32.789 16.536 32.221 16.368C31.661 16.192 31.189 15.952 30.805 15.648L31.477 14.436C31.781 14.684 32.149 14.884 32.581 15.036C33.013 15.188 33.465 15.264 33.937 15.264C34.497 15.264 34.933 15.152 35.245 14.928C35.557 14.696 35.713 14.384 35.713 13.992C35.713 13.608 35.569 13.304 35.281 13.08C34.993 12.856 34.529 12.744 33.889 12.744H33.121V11.676L35.521 8.82L35.725 9.408H31.213V8.1H36.937V9.144L34.537 12L33.721 11.52H34.189C35.221 11.52 35.993 11.752 36.505 12.216C37.025 12.672 37.285 13.26 37.285 13.98C37.285 14.452 37.165 14.888 36.925 15.288C36.685 15.688 36.317 16.012 35.821 16.26C35.333 16.5 34.713 16.62 33.961 16.62Z" fill="black"/>
<defs>
<linearGradient id="paint0_linear_501_9353" x1="17.0761" y1="25.5239" x2="22.7725" y2="26.3779" gradientUnits="userSpaceOnUse">
<stop stop-color="#C09E6C"/>
<stop offset="0.426246" stop-color="#FFEBCC"/>
<stop offset="1" stop-color="#BF936B"/>
</linearGradient>
<linearGradient id="paint1_linear_501_9353" x1="9.46399" y1="20.5238" x2="30.3912" y2="21.6106" gradientUnits="userSpaceOnUse">
<stop stop-color="#C09E6C"/>
<stop offset="0.426246" stop-color="#FFEBCC"/>
<stop offset="1" stop-color="#BF936B"/>
</linearGradient>
<linearGradient id="paint2_linear_501_9353" x1="13.6784" y1="19.7381" x2="26.2199" y2="18.9565" gradientUnits="userSpaceOnUse">
<stop stop-color="#C09E6C"/>
<stop offset="0.426246" stop-color="#FFEBCC"/>
<stop offset="1" stop-color="#BF936B"/>
</linearGradient>
<linearGradient id="paint3_linear_501_9353" x1="13.6784" y1="19.7381" x2="26.2199" y2="18.9565" gradientUnits="userSpaceOnUse">
<stop stop-color="#C09E6C"/>
<stop offset="0.426246" stop-color="#FFEBCC"/>
<stop offset="1" stop-color="#BF936B"/>
</linearGradient>
</defs>
</svg>
